<svg width="20" height="20" viewBox="0 0 20 20" fill="none" xmlns="http://www.w3.org/2000/svg">
<path d="M18.8089 8.2428L2.6724 1.64682C1.9926 1.36891 1.22459 1.49117 0.668142 1.96571C0.111696 2.44033 -0.121038 3.17162 0.0608369 3.87416L1.49713 9.42277H8.5294C8.85299 9.42277 9.11538 9.68121 9.11538 10C9.11538 10.3188 8.85303 10.5773 8.5294 10.5773H1.49713L0.0608369 16.1258C-0.121038 16.8284 0.111657 17.5597 0.668142 18.0343C1.22572 18.5098 1.99381 18.6306 2.67244 18.3532L18.8089 11.7572C19.5436 11.4569 20 10.7836 20 10C20 9.21644 19.5436 8.54306 18.8089 8.2428Z" fill="white"/>
</svg>
